# xmcd
#
# Track frame offsets:
#	150
#	24329
#	59426
#	83059
#	97916
#	129198
#	146121
#	159362
#	173012
#	195495
#	198698
#	212488
#
# Disc length: 3035 seconds
#
# Revision: 0
# Processed by: cddbd v1.5.2PL0 Copyright (c) Steve Scherf et al.
# Submitted via: EZCDAudioConverter 2.1.7.1
#
DISCID=980bd90c
DTITLE=Split Enz - Mental Notes
DYEAR=1900
DGENRE=
TTITLE0=Walking Down A Road
TTITLE1=Under The Wheel
TTITLE2=Amy (Darling)
TTITLE3=So Long For Now
TTITLE4=Stranger Than Fiction
TTITLE5=Time For A Change
TTITLE6=Maybe
TTITLE7=Titus
TTITLE8=Spellbound
TTITLE9=Mental Notes
TTITLE10=129
TTITLE11=Lovey Dovey
EXTD=
EXTT0=
EXTT1=
EXTT2=
EXTT3=
EXTT4=
EXTT5=
EXTT6=
EXTT7=
EXTT8=
EXTT9=
EXTT10=
EXTT11=
PLAYORDER=
